<svg xmlns="http://www.w3.org/2000/svg" viewBox="0 0 2000 2000" width="2000" height="2000" shape-rendering="crispEdges">
  <title>0xNull — 0xnull_transparent_grey</title>

  <!-- cloak start -->
  <rect x="878" y="359" width="61" height="61" fill="#868686" />
  <rect x="939" y="359" width="61" height="61" fill="#808080" />
  <rect x="1000" y="359" width="61" height="61" fill="#808080" />
  <rect x="1061" y="359" width="61" height="61" fill="#808080" />
  <rect x="1122" y="359" width="61" height="61" fill="#808080" />
  <rect x="1183" y="359" width="61" height="61" fill="#808080" />
  <rect x="1244" y="359" width="61" height="61" fill="#808080" />
  <rect x="756" y="420" width="61" height="61" fill="#808080" />
  <rect x="817" y="420" width="61" height="61" fill="#808080" />
  <rect x="878" y="420" width="61" height="61" fill="#808080" />
  <rect x="939" y="420" width="61" height="61" fill="#808080" />
  <rect x="1000" y="420" width="61" height="61" fill="#808080" />
  <rect x="1061" y="420" width="61" height="61" fill="#808080" />
  <rect x="1122" y="420" width="61" height="61" fill="#808080" />
  <rect x="1183" y="420" width="61" height="61" fill="#808080" />
  <rect x="756" y="481" width="61" height="61" fill="#808080" />
  <rect x="817" y="481" width="61" height="61" fill="#808080" />
  <rect x="878" y="481" width="61" height="61" fill="#808080" />
  <rect x="939" y="481" width="61" height="61" fill="#808080" />
  <rect x="1000" y="481" width="61" height="61" fill="#808080" />
  <rect x="1061" y="481" width="61" height="61" fill="#868686" />
  <rect x="1122" y="481" width="61" height="61" fill="#808080" />
  <rect x="1183" y="481" width="61" height="61" fill="#808080" />
  <rect x="1244" y="481" width="61" height="61" fill="#808080" />
  <rect x="695" y="542" width="61" height="61" fill="#868686" />
  <rect x="756" y="542" width="61" height="61" fill="#808080" />
  <rect x="817" y="542" width="61" height="61" fill="#808080" />
  <rect x="878" y="542" width="61" height="61" fill="#808080" />
  <rect x="939" y="542" width="61" height="61" fill="#808080" />
  <rect x="1000" y="542" width="61" height="61" fill="#868686" />
  <rect x="1061" y="542" width="61" height="61" fill="#808080" />
  <rect x="1122" y="542" width="61" height="61" fill="#808080" />
  <rect x="1183" y="542" width="61" height="61" fill="#808080" />
  <rect x="1244" y="542" width="61" height="61" fill="#808080" />
  <rect x="695" y="603" width="61" height="61" fill="#808080" />
  <rect x="756" y="603" width="61" height="61" fill="#808080" />
  <rect x="1122" y="603" width="61" height="61" fill="#808080" />
  <rect x="1183" y="603" width="61" height="61" fill="#808080" />
  <rect x="1244" y="603" width="61" height="61" fill="#868686" />
  <rect x="695" y="664" width="61" height="61" fill="#808080" />
  <rect x="756" y="664" width="61" height="61" fill="#808080" />
  <rect x="1122" y="664" width="61" height="61" fill="#808080" />
  <rect x="1183" y="664" width="61" height="61" fill="#808080" />
  <rect x="1244" y="664" width="61" height="61" fill="#808080" />
  <rect x="695" y="725" width="61" height="61" fill="#808080" />
  <rect x="756" y="725" width="61" height="61" fill="#808080" />
  <rect x="1122" y="725" width="61" height="61" fill="#868686" />
  <rect x="1183" y="725" width="61" height="61" fill="#808080" />
  <rect x="1244" y="725" width="61" height="61" fill="#808080" />
  <rect x="695" y="786" width="61" height="61" fill="#808080" />
  <rect x="756" y="786" width="61" height="61" fill="#868686" />

  <rect x="1183" y="1152" width="61" height="61" fill="#808080" />
  <rect x="939" y="1213" width="61" height="61" fill="#808080" />
  <rect x="1000" y="1213" width="61" height="61" fill="#808080" />
  <rect x="1061" y="1213" width="61" height="61" fill="#808080" />
  <rect x="1122" y="1213" width="61" height="61" fill="#808080" />
  <rect x="878" y="1274" width="61" height="61" fill="#808080" />
  <rect x="939" y="1274" width="61" height="61" fill="#808080" />
  <rect x="1000" y="1274" width="61" height="61" fill="#808080" />
  <rect x="1061" y="1274" width="61" height="61" fill="#808080" />
  <rect x="1122" y="1274" width="61" height="61" fill="#808080" />
  <rect x="878" y="1335" width="61" height="61" fill="#4a4a4a" />
  <rect x="939" y="1335" width="61" height="61" fill="#808080" />
  <rect x="1000" y="1335" width="61" height="61" fill="#808080" />
  <rect x="1061" y="1335" width="61" height="61" fill="#808080" />
  <rect x="1122" y="1335" width="61" height="61" fill="#808080" />
  <rect x="878" y="1396" width="61" height="61" fill="#808080" />
  <rect x="939" y="1396" width="61" height="61" fill="#4a4a4a" />
  <rect x="1000" y="1396" width="61" height="61" fill="#808080" />
  <rect x="1061" y="1396" width="61" height="61" fill="#808080" />
  <rect x="1122" y="1396" width="61" height="61" fill="#868686" />
  <rect x="878" y="1457" width="61" height="61" fill="#808080" />
  <rect x="939" y="1457" width="61" height="61" fill="#646464" />
  <rect x="1000" y="1457" width="61" height="61" fill="#808080" />
  <rect x="1061" y="1457" width="61" height="61" fill="#808080" />
  <rect x="1122" y="1457" width="61" height="61" fill="#808080" />
  <rect x="878" y="1518" width="61" height="61" fill="#808080" />
  <rect x="939" y="1518" width="61" height="61" fill="#646464" />
  <rect x="1000" y="1518" width="61" height="61" fill="#808080" />
  <rect x="1061" y="1518" width="61" height="61" fill="#808080" />
  <rect x="1122" y="1518" width="61" height="61" fill="#808080" />
  <rect x="1183" y="1518" width="61" height="61" fill="#808080" />
  <rect x="817" y="1579" width="61" height="61" fill="#808080" />
  <rect x="878" y="1579" width="61" height="61" fill="#808080" />
  <rect x="939" y="1579" width="61" height="61" fill="#808080" />
  <rect x="1000" y="1579" width="61" height="61" fill="#4a4a4a" />
  <rect x="1061" y="1579" width="61" height="61" fill="#4a4a4a" />
  <rect x="1122" y="1579" width="61" height="61" fill="#4a4a4a" />
  <rect x="1183" y="1579" width="61" height="61" fill="#808080" />
  <rect x="1122" y="786" width="61" height="61" fill="#808080" />
  <rect x="1183" y="786" width="61" height="61" fill="#808080" />
  <rect x="1244" y="786" width="61" height="61" fill="#808080" />
  <rect x="756" y="847" width="61" height="61" fill="#808080" />
  <rect x="817" y="847" width="61" height="61" fill="#808080" />
  <rect x="878" y="847" width="61" height="61" fill="#808080" />
  <rect x="939" y="847" width="61" height="61" fill="#808080" />
  <rect x="1000" y="847" width="61" height="61" fill="#808080" />
  <rect x="1061" y="847" width="61" height="61" fill="#808080" />
  <rect x="1122" y="847" width="61" height="61" fill="#808080" />
  <rect x="1183" y="847" width="61" height="61" fill="#808080" />
  <rect x="817" y="908" width="61" height="61" fill="#646464" />
  <rect x="878" y="908" width="61" height="61" fill="#646464" />
  <rect x="939" y="908" width="61" height="61" fill="#646464" />
  <rect x="1000" y="908" width="61" height="61" fill="#646464" />
  <rect x="1061" y="908" width="61" height="61" fill="#646464" />
  <rect x="1122" y="908" width="61" height="61" fill="#868686" />
  <rect x="1183" y="908" width="61" height="61" fill="#808080" />
  <rect x="1061" y="969" width="61" height="61" fill="#646464" />
  <rect x="1122" y="969" width="61" height="61" fill="#808080" />
  <rect x="1183" y="969" width="61" height="61" fill="#808080" />
  <rect x="1122" y="1030" width="61" height="61" fill="#646464" />
  <rect x="1183" y="1030" width="61" height="61" fill="#808080" />
  <rect x="1122" y="1091" width="61" height="61" fill="#646464" />
  <rect x="1183" y="1091" width="61" height="61" fill="#868686" />
  <rect x="817" y="1152" width="61" height="61" fill="#808080" />
  <rect x="1061" y="1152" width="61" height="61" fill="#646464" />
  <!-- cloak end -->

  <!-- face start -->
  <rect x="817" y="603" width="61" height="61" fill="#2a2a2a" />
  <rect x="939" y="603" width="61" height="61" fill="#2a2a2a" />
  <rect x="1061" y="603" width="61" height="61" fill="#2a2a2a" />
  <rect x="817" y="664" width="61" height="61" fill="#2a2a2a" />
  <rect x="939" y="664" width="61" height="61" fill="#2a2a2a" />
  <rect x="1061" y="664" width="61" height="61" fill="#2a2a2a" />
  <rect x="817" y="725" width="61" height="61" fill="#2a2a2a" />
  <rect x="878" y="725" width="61" height="61" fill="#2a2a2a" />
  <rect x="939" y="725" width="61" height="61" fill="#2a2a2a" />
  <rect x="1000" y="725" width="61" height="61" fill="#2a2a2a" />
  <rect x="1061" y="725" width="61" height="61" fill="#2a2a2a" />
  <rect x="817" y="786" width="61" height="61" fill="#2a2a2a" />
  <rect x="878" y="786" width="61" height="61" fill="#2a2a2a" />
  <rect x="939" y="786" width="61" height="61" fill="#2a2a2a" />
  <rect x="1000" y="786" width="61" height="61" fill="#2a2a2a" />
  <rect x="1061" y="786" width="61" height="61" fill="#2a2a2a" />
  <!-- face end -->

  <!-- eyes start -->
  <rect x="878" y="664" width="61" height="61" fill="#ffffff" />
  <rect x="1000" y="664" width="61" height="61" fill="#ffffff" />
  <rect x="878" y="603" width="61" height="61" fill="#646464" />
  <rect x="1000" y="603" width="61" height="61" fill="#646464" />
  <!-- eyes end -->


  <!-- orb start -->
  <rect x="878" y="969" width="61" height="61" fill="#6ab3db" />
  <rect x="939" y="969" width="61" height="61" fill="#6ab3db" />
  <rect x="1000" y="969" width="61" height="61" fill="#6ab3db" />
  <rect x="756" y="1030" width="61" height="61" fill="#6ab3db" />
  <rect x="817" y="1030" width="61" height="61" fill="#6ab3db" />
  <rect x="878" y="1030" width="61" height="61" fill="#88c0db" />
  <rect x="939" y="1030" width="61" height="61" fill="#88c0db" />
  <rect x="1000" y="1030" width="61" height="61" fill="#6ab3db" />
  <rect x="1061" y="1030" width="61" height="61" fill="#6ab3db" />
  <rect x="756" y="1091" width="61" height="61" fill="#6ab3db" />
  <rect x="817" y="1091" width="61" height="61" fill="#6ab3db" />
  <rect x="878" y="1091" width="61" height="61" fill="#6ab3db" />
  <rect x="939" y="1091" width="61" height="61" fill="#6ab3db" />
  <rect x="1000" y="1091" width="61" height="61" fill="#6ab3db" />
  <rect x="1061" y="1091" width="61" height="61" fill="#6ab3db" />
  <rect x="878" y="1152" width="61" height="61" fill="#6ab3db" />
  <rect x="939" y="1152" width="61" height="61" fill="#6ab3db" />
  <rect x="1000" y="1152" width="61" height="61" fill="#6ab3db" />
  <!-- orb end -->

  <!-- hands start -->
  <rect x="756" y="1152" width="61" height="61" fill="#efcda7" />
  <rect x="1122" y="1152" width="61" height="61" fill="#efcda7" />
  <!-- hands end -->
</svg>